<svg width="24" height="24" viewBox="0 0 24 24" fill="none" xmlns="http://www.w3.org/2000/svg">
<rect width="24" height="24" rx="4" fill="#438DB8"/>
<path d="M6.375 7H6.75395C7.39184 7 7.9274 7.48031 7.99658 8.11444L8.50342 12.7606C8.5726 13.3947 9.10816 13.875 9.74605 13.875H15.1538C15.7252 13.875 16.2238 13.4876 16.365 12.9339L17.2275 9.55194C17.429 8.76159 16.8319 7.99306 16.0162 7.99306H8.625M8.64047 16.1406H9.10922M8.64047 16.6093H9.10922M15.5155 16.1406H15.9842M15.5155 16.6093H15.9842M9.5 16.375C9.5 16.7202 9.22018 17 8.875 17C8.52982 17 8.25 16.7202 8.25 16.375C8.25 16.0298 8.52982 15.75 8.875 15.75C9.22018 15.75 9.5 16.0298 9.5 16.375ZM16.375 16.375C16.375 16.7202 16.0952 17 15.75 17C15.4048 17 15.125 16.7202 15.125 16.375C15.125 16.0298 15.4048 15.75 15.75 15.75C16.0952 15.75 16.375 16.0298 16.375 16.375Z" stroke="white" stroke-linecap="round"/>
</svg>
