<svg width="40" height="38" viewBox="0 0 40 38" fill="none" xmlns="http://www.w3.org/2000/svg">
<rect x="1" y="0.5" width="38" height="37" rx="3.5" fill="white"/>
<rect x="1" y="0.5" width="38" height="37" rx="3.5" stroke="#B4B4B4" stroke-linejoin="bevel"/>
<path d="M14.375 14H14.7539C15.3918 14 15.9274 14.4803 15.9966 15.1144L16.5034 19.7606C16.5726 20.3947 17.1082 20.875 17.7461 20.875H23.1538C23.7252 20.875 24.2238 20.4876 24.365 19.9339L25.2275 16.5519C25.429 15.7616 24.8319 14.9931 24.0162 14.9931H16.625M16.6405 23.1406H17.1092M16.6405 23.6093H17.1092M23.5155 23.1406H23.9842M23.5155 23.6093H23.9842M17.5 23.375C17.5 23.7202 17.2202 24 16.875 24C16.5298 24 16.25 23.7202 16.25 23.375C16.25 23.0298 16.5298 22.75 16.875 22.75C17.2202 22.75 17.5 23.0298 17.5 23.375ZM24.375 23.375C24.375 23.7202 24.0952 24 23.75 24C23.4048 24 23.125 23.7202 23.125 23.375C23.125 23.0298 23.4048 22.75 23.75 22.75C24.0952 22.75 24.375 23.0298 24.375 23.375Z" stroke="#666666" stroke-linecap="round"/>
</svg>
