<svg width="30" height="30" viewBox="0 0 30 30" fill="none" xmlns="http://www.w3.org/2000/svg">
<rect width="30" height="30" rx="15" fill="white"/>
<path fill-rule="evenodd" clip-rule="evenodd" d="M14.9949 9.93011C13.4953 8.18259 10.9948 7.71251 9.11602 9.31271C7.23723 10.9129 6.97273 13.5884 8.44815 15.4809C9.67486 17.0545 13.3873 20.3732 14.6041 21.4473C14.7402 21.5675 14.8083 21.6276 14.8877 21.6512C14.957 21.6718 15.0328 21.6718 15.1021 21.6512C15.1815 21.6276 15.2495 21.5675 15.3857 21.4473C16.6024 20.3732 20.3149 17.0545 21.5416 15.4809C23.017 13.5884 22.7848 10.8961 20.8737 9.31271C18.9626 7.72935 16.4944 8.18259 14.9949 9.93011Z" stroke="#737373" stroke-linecap="round" stroke-linejoin="round"/>
</svg>
