<svg width="25" height="24" viewBox="0 0 25 24" fill="none" xmlns="http://www.w3.org/2000/svg">
<rect x="0.333313" width="24" height="24" rx="12" fill="#F6F6F6"/>
<path d="M12.3086 9.38347C10.8753 9.38347 9.71916 10.5396 9.71916 11.9729C9.71916 13.4062 10.8753 14.5623 12.3086 14.5623C13.7418 14.5623 14.8979 13.4062 14.8979 11.9729C14.8979 10.5396 13.7418 9.38347 12.3086 9.38347ZM12.3086 13.6563C11.3823 13.6563 10.6251 12.9013 10.6251 11.9729C10.6251 11.0444 11.3801 10.2894 12.3086 10.2894C13.237 10.2894 13.992 11.0444 13.992 11.9729C13.992 12.9013 13.2348 13.6563 12.3086 13.6563ZM15.6078 9.27755C15.6078 9.61334 15.3374 9.88152 15.0039 9.88152C14.6681 9.88152 14.3999 9.61108 14.3999 9.27755C14.3999 8.94402 14.6703 8.67358 15.0039 8.67358C15.3374 8.67358 15.6078 8.94402 15.6078 9.27755ZM17.3228 9.89053C17.2845 9.08149 17.0997 8.36484 16.507 7.7744C15.9166 7.18395 15.1999 6.99915 14.3909 6.95859C13.557 6.91126 11.0578 6.91126 10.224 6.95859C9.41718 6.9969 8.70053 7.1817 8.10783 7.77214C7.51513 8.36259 7.33259 9.07923 7.29203 9.88828C7.2447 10.7221 7.2447 13.2214 7.29203 14.0552C7.33034 14.8642 7.51513 15.5809 8.10783 16.1713C8.70053 16.7618 9.41492 16.9466 10.224 16.9871C11.0578 17.0345 13.557 17.0345 14.3909 16.9871C15.1999 16.9488 15.9166 16.764 16.507 16.1713C17.0975 15.5809 17.2823 14.8642 17.3228 14.0552C17.3701 13.2214 17.3701 10.7244 17.3228 9.89053ZM16.2456 14.9499C16.0698 15.3916 15.7295 15.7319 15.2856 15.9099C14.6208 16.1736 13.0432 16.1127 12.3086 16.1127C11.5739 16.1127 9.9941 16.1713 9.33154 15.9099C8.88983 15.7341 8.54954 15.3938 8.3715 14.9499C8.10783 14.2851 8.16868 12.7075 8.16868 11.9729C8.16868 11.2382 8.11008 9.65841 8.3715 8.99585C8.54728 8.55414 8.88758 8.21385 9.33154 8.03581C9.99635 7.77214 11.5739 7.83299 12.3086 7.83299C13.0432 7.83299 14.623 7.7744 15.2856 8.03581C15.7273 8.21159 16.0676 8.55189 16.2456 8.99585C16.5093 9.66066 16.4484 11.2382 16.4484 11.9729C16.4484 12.7075 16.5093 14.2873 16.2456 14.9499Z" fill="#666666"/>
</svg>
