<svg width="39" height="38" viewBox="0 0 39 38" fill="none" xmlns="http://www.w3.org/2000/svg">
<rect x="0.5" y="0.5" width="38" height="37" rx="3.5" fill="white"/>
<rect x="0.5" y="0.5" width="38" height="37" rx="3.5" stroke="#B4B4B4" stroke-linejoin="bevel"/>
<g clip-path="url(#clip0_1_1698)">
<path d="M26.8131 27.0202C27.0084 27.2155 27.325 27.2155 27.5202 27.0202C27.7155 26.825 27.7155 26.5084 27.5202 26.3131L26.8131 27.0202ZM24.1667 18.3333C24.1667 21.2789 21.7789 23.6667 18.8333 23.6667V24.6667C22.3311 24.6667 25.1667 21.8311 25.1667 18.3333H24.1667ZM18.8333 23.6667C15.8878 23.6667 13.5 21.2789 13.5 18.3333H12.5C12.5 21.8311 15.3355 24.6667 18.8333 24.6667V23.6667ZM13.5 18.3333C13.5 15.3878 15.8878 13 18.8333 13V12C15.3355 12 12.5 14.8355 12.5 18.3333H13.5ZM18.8333 13C21.7789 13 24.1667 15.3878 24.1667 18.3333H25.1667C25.1667 14.8355 22.3311 12 18.8333 12V13ZM22.6465 22.8536L26.8131 27.0202L27.5202 26.3131L23.3536 22.1465L22.6465 22.8536Z" fill="#666666"/>
</g>
<defs>
<clipPath id="clip0_1_1698">
<rect width="15" height="15" fill="white" transform="translate(12 11.5)"/>
</clipPath>
</defs>
</svg>
