<svg width="51" height="51" viewBox="0 0 51 51" fill="none" xmlns="http://www.w3.org/2000/svg">
<path d="M35.9167 19.5789L35.7587 17.4493C35.614 15.4983 33.928 13.9868 31.8968 13.9868H27.7584M13 40.0833H10.6219C8.37501 40.0833 6.59995 38.2477 6.76004 36.0896L8.1428 17.4493C8.28752 15.4983 9.97344 13.9868 12.0047 13.9868H16.1431M16.1431 13.9868V10.2587C16.1431 7.1703 18.7433 4.66663 21.9507 4.66663C25.1582 4.66663 27.7584 7.1703 27.7584 10.2587V13.9868M16.1431 13.9868H27.7584M35.9167 31.75C35.9167 34.0511 34.0512 35.9166 31.75 35.9166C29.4488 35.9166 27.5833 34.0511 27.5833 31.75M23.4167 44.25H40.0833C42.3845 44.25 44.25 42.3845 44.25 40.0833V29.6666C44.25 27.3654 42.3845 25.5 40.0833 25.5H23.4167C21.1155 25.5 19.25 27.3654 19.25 29.6666V40.0833C19.25 42.3845 21.1155 44.25 23.4167 44.25Z" stroke="#666666" stroke-linecap="round"/>
</svg>
