<svg width="30" height="30" viewBox="0 0 30 30" fill="none" xmlns="http://www.w3.org/2000/svg">
<rect width="30" height="30" rx="15" fill="#D72A48"/>
<path d="M10.8763 14.4909C10.923 14.7309 10.9463 15.0076 10.9463 15.3209C10.9463 15.6276 10.9263 15.8742 10.8863 16.0609C10.793 16.5009 10.5797 16.8409 10.2463 17.0809C9.91299 17.3142 9.48299 17.4309 8.95633 17.4309C8.50299 17.4309 8.11633 17.3176 7.79633 17.0909C7.48299 16.8642 7.26966 16.5576 7.15633 16.1709C7.12966 16.0976 7.10633 16.0176 7.08633 15.9309C7.07299 15.8376 7.06633 15.7642 7.06633 15.7109L7.05633 15.6309H7.96633C7.97966 15.7442 7.99633 15.8309 8.01633 15.8909C8.08299 16.1309 8.20633 16.3176 8.38633 16.4509C8.56633 16.5776 8.77966 16.6409 9.02633 16.6409C9.28633 16.6409 9.50299 16.5742 9.67633 16.4409C9.85633 16.3076 9.97299 16.1176 10.0263 15.8709C10.073 15.7576 10.0997 15.5809 10.1063 15.3409C10.113 15.0942 10.093 14.8909 10.0463 14.7309C9.93966 14.2242 9.60633 13.9709 9.04633 13.9709C8.79966 13.9709 8.56966 14.0342 8.35633 14.1609C8.14966 14.2876 8.02633 14.4509 7.98633 14.6509H7.06633V10.7609H10.7663V11.5309H7.95633L7.94633 13.6609C8.25299 13.3542 8.65633 13.2009 9.15633 13.2009C9.60966 13.2009 9.98966 13.3142 10.2963 13.5409C10.603 13.7609 10.7963 14.0776 10.8763 14.4909ZM15.6268 16.9009C15.2535 17.2609 14.7501 17.4409 14.1168 17.4409C13.4835 17.4409 12.9801 17.2609 12.6068 16.9009C12.2335 16.5409 12.0468 16.0576 12.0468 15.4509V12.6709C12.0468 12.0642 12.2335 11.5842 12.6068 11.2309C12.9801 10.8709 13.4835 10.6909 14.1168 10.6909C14.7501 10.6909 15.2535 10.8709 15.6268 11.2309C16.0068 11.5842 16.1968 12.0642 16.1968 12.6709V15.4509C16.1968 16.0576 16.0068 16.5409 15.6268 16.9009ZM14.1168 16.6709C14.4768 16.6709 14.7635 16.5642 14.9768 16.3509C15.1968 16.1376 15.3068 15.8542 15.3068 15.5009V12.6309C15.3068 12.2776 15.1968 11.9942 14.9768 11.7809C14.7635 11.5676 14.4768 11.4609 14.1168 11.4609C13.7635 11.4609 13.4768 11.5676 13.2568 11.7809C13.0435 11.9942 12.9368 12.2776 12.9368 12.6309V15.5009C12.9368 15.8542 13.0435 16.1376 13.2568 16.3509C13.4768 16.5642 13.7635 16.6709 14.1168 16.6709ZM19.83 12.7609C19.5567 13.0409 19.2233 13.1809 18.83 13.1809C18.4367 13.1809 18.1 13.0409 17.82 12.7609C17.54 12.4809 17.4 12.1376 17.4 11.7309C17.4 11.3309 17.54 10.9909 17.82 10.7109C18.1 10.4309 18.4367 10.2909 18.83 10.2909C19.2233 10.2909 19.5567 10.4309 19.83 10.7109C20.1033 10.9909 20.24 11.3309 20.24 11.7309C20.24 12.1376 20.1033 12.4809 19.83 12.7609ZM18.42 17.3809L22.17 10.3209H22.81L19.07 17.3809H18.42ZM18.83 12.7109C19.0833 12.7109 19.3 12.6176 19.48 12.4309C19.66 12.2376 19.75 12.0042 19.75 11.7309C19.75 11.4642 19.66 11.2376 19.48 11.0509C19.3 10.8576 19.0833 10.7609 18.83 10.7609C18.57 10.7609 18.3467 10.8576 18.16 11.0509C17.98 11.2376 17.89 11.4642 17.89 11.7309C17.89 12.0042 17.98 12.2376 18.16 12.4309C18.34 12.6176 18.5633 12.7109 18.83 12.7109ZM22.44 17.4109C22.0467 17.4109 21.71 17.2709 21.43 16.9909C21.15 16.7109 21.01 16.3676 21.01 15.9609C21.01 15.5609 21.15 15.2209 21.43 14.9409C21.71 14.6609 22.0467 14.5209 22.44 14.5209C22.8333 14.5209 23.1667 14.6609 23.44 14.9409C23.7133 15.2209 23.85 15.5609 23.85 15.9609C23.85 16.3609 23.71 16.7042 23.43 16.9909C23.1567 17.2709 22.8267 17.4109 22.44 17.4109ZM22.44 16.9409C22.6933 16.9409 22.91 16.8476 23.09 16.6609C23.27 16.4676 23.36 16.2342 23.36 15.9609C23.36 15.6942 23.27 15.4676 23.09 15.2809C22.91 15.0876 22.6933 14.9909 22.44 14.9909C22.18 14.9909 21.9567 15.0876 21.77 15.2809C21.59 15.4676 21.5 15.6942 21.5 15.9609C21.5 16.2342 21.59 16.4676 21.77 16.6609C21.95 16.8476 22.1733 16.9409 22.44 16.9409Z" fill="white"/>
</svg>
