<svg width="51" height="41" viewBox="0 0 51 41" fill="none" xmlns="http://www.w3.org/2000/svg">
<path d="M30.5 33.8333V1.83333C30.5 1.09695 29.9404 0.5 29.25 0.5H1.75C1.05964 0.5 0.5 1.09695 0.5 1.83333V33.8333C0.5 34.5697 1.05964 35.1667 1.75 35.1667H5.5M30.5 33.8333C30.5 34.5697 29.9404 35.1667 29.25 35.1667H15.5M30.5 33.8333V9.83333C30.5 9.09695 31.0596 8.5 31.75 8.5H39.9822C40.3138 8.5 40.6317 8.64048 40.8661 8.89052L50.1339 18.7761C50.3683 19.0262 50.5 19.3653 50.5 19.719V33.8333C50.5 34.5697 49.9404 35.1667 49.25 35.1667H45.5M30.5 33.8333C30.5 34.5697 31.0596 35.1667 31.75 35.1667H35.5M5.5 35.1667C5.5 38.1122 7.73858 40.5 10.5 40.5C13.2614 40.5 15.5 38.1122 15.5 35.1667M5.5 35.1667C5.5 32.2211 7.73858 29.8333 10.5 29.8333C13.2614 29.8333 15.5 32.2211 15.5 35.1667M35.5 35.1667C35.5 38.1122 37.7386 40.5 40.5 40.5C43.2614 40.5 45.5 38.1122 45.5 35.1667M35.5 35.1667C35.5 32.2211 37.7386 29.8333 40.5 29.8333C43.2614 29.8333 45.5 32.2211 45.5 35.1667" stroke="#666666"/>
</svg>
